<mxfile host="Electron" agent="Mozilla/5.0 (Windows NT 10.0; Win64; x64) AppleWebKit/537.36 (KHTML, like Gecko) draw.io/24.7.17 Chrome/128.0.6613.36 Electron/32.0.1 Safari/537.36" version="24.7.17">
  <diagram name="PÃ¡gina-1" id="RVmTFGCUYDba1Yx8L8ry">
    <mxGraphModel dx="1257" dy="760" grid="1" gridSize="10" guides="1" tooltips="1" connect="1" arrows="1" fold="1" page="1" pageScale="1" pageWidth="827" pageHeight="1169" math="0" shadow="0">
      <root>
        <mxCell id="0" />
        <mxCell id="1" parent="0" />
        <mxCell id="nc8W8f6lbi63a8oRN4Be-1" value="" style="endArrow=none;html=1;rounded=0;" parent="1" edge="1">
          <mxGeometry width="50" height="50" relative="1" as="geometry">
            <mxPoint x="40" y="240" as="sourcePoint" />
            <mxPoint x="40" y="160" as="targetPoint" />
          </mxGeometry>
        </mxCell>
        <mxCell id="nc8W8f6lbi63a8oRN4Be-2" value="" style="endArrow=classic;html=1;rounded=0;" parent="1" edge="1">
          <mxGeometry width="50" height="50" relative="1" as="geometry">
            <mxPoint x="40" y="200" as="sourcePoint" />
            <mxPoint x="100" y="200" as="targetPoint" />
          </mxGeometry>
        </mxCell>
        <mxCell id="nc8W8f6lbi63a8oRN4Be-3" value="Llegan P de Masas&lt;div&gt;a la Linea 1&lt;/div&gt;" style="text;html=1;align=center;verticalAlign=middle;resizable=0;points=[];autosize=1;strokeColor=none;fillColor=none;" parent="1" vertex="1">
          <mxGeometry y="120" width="130" height="40" as="geometry" />
        </mxCell>
        <mxCell id="nc8W8f6lbi63a8oRN4Be-4" value="" style="endArrow=none;html=1;rounded=0;" parent="1" edge="1">
          <mxGeometry width="50" height="50" relative="1" as="geometry">
            <mxPoint x="40" y="517" as="sourcePoint" />
            <mxPoint x="40" y="437" as="targetPoint" />
          </mxGeometry>
        </mxCell>
        <mxCell id="nc8W8f6lbi63a8oRN4Be-5" value="" style="endArrow=classic;html=1;rounded=0;" parent="1" edge="1">
          <mxGeometry width="50" height="50" relative="1" as="geometry">
            <mxPoint x="40" y="477" as="sourcePoint" />
            <mxPoint x="100" y="477" as="targetPoint" />
          </mxGeometry>
        </mxCell>
        <mxCell id="nc8W8f6lbi63a8oRN4Be-6" value="Llegan P de Masas&lt;div&gt;a la Linea 2&lt;/div&gt;" style="text;html=1;align=center;verticalAlign=middle;resizable=0;points=[];autosize=1;strokeColor=none;fillColor=none;" parent="1" vertex="1">
          <mxGeometry y="400" width="130" height="40" as="geometry" />
        </mxCell>
        <mxCell id="nc8W8f6lbi63a8oRN4Be-7" value="" style="ellipse;whiteSpace=wrap;html=1;aspect=fixed;" parent="1" vertex="1">
          <mxGeometry x="100.00000000000011" y="180" width="40" height="40" as="geometry" />
        </mxCell>
        <mxCell id="nc8W8f6lbi63a8oRN4Be-8" value="" style="endArrow=none;html=1;rounded=0;" parent="1" edge="1">
          <mxGeometry width="50" height="50" relative="1" as="geometry">
            <mxPoint x="200.0000000000001" y="240" as="sourcePoint" />
            <mxPoint x="200.0000000000001" y="160" as="targetPoint" />
          </mxGeometry>
        </mxCell>
        <mxCell id="nc8W8f6lbi63a8oRN4Be-9" value="" style="endArrow=classic;html=1;rounded=0;" parent="1" edge="1">
          <mxGeometry width="50" height="50" relative="1" as="geometry">
            <mxPoint x="200.0000000000001" y="200" as="sourcePoint" />
            <mxPoint x="260.0000000000001" y="200" as="targetPoint" />
          </mxGeometry>
        </mxCell>
        <mxCell id="nc8W8f6lbi63a8oRN4Be-10" value="" style="endArrow=classic;html=1;rounded=0;" parent="1" edge="1">
          <mxGeometry width="50" height="50" relative="1" as="geometry">
            <mxPoint x="140.0000000000001" y="199.57999999999998" as="sourcePoint" />
            <mxPoint x="200.0000000000001" y="200" as="targetPoint" />
          </mxGeometry>
        </mxCell>
        <mxCell id="nc8W8f6lbi63a8oRN4Be-11" value="" style="ellipse;whiteSpace=wrap;html=1;aspect=fixed;" parent="1" vertex="1">
          <mxGeometry x="100.00000000000011" y="460" width="40" height="40" as="geometry" />
        </mxCell>
        <mxCell id="nc8W8f6lbi63a8oRN4Be-12" value="" style="endArrow=none;html=1;rounded=0;" parent="1" edge="1">
          <mxGeometry width="50" height="50" relative="1" as="geometry">
            <mxPoint x="200.0000000000001" y="520" as="sourcePoint" />
            <mxPoint x="200.0000000000001" y="440" as="targetPoint" />
          </mxGeometry>
        </mxCell>
        <mxCell id="nc8W8f6lbi63a8oRN4Be-13" value="" style="endArrow=classic;html=1;rounded=0;" parent="1" edge="1">
          <mxGeometry width="50" height="50" relative="1" as="geometry">
            <mxPoint x="200.0000000000001" y="480" as="sourcePoint" />
            <mxPoint x="260.0000000000001" y="480" as="targetPoint" />
          </mxGeometry>
        </mxCell>
        <mxCell id="nc8W8f6lbi63a8oRN4Be-14" value="" style="endArrow=classic;html=1;rounded=0;" parent="1" edge="1">
          <mxGeometry width="50" height="50" relative="1" as="geometry">
            <mxPoint x="140.0000000000001" y="479.58" as="sourcePoint" />
            <mxPoint x="200.0000000000001" y="480" as="targetPoint" />
          </mxGeometry>
        </mxCell>
        <mxCell id="nc8W8f6lbi63a8oRN4Be-15" value="Masas Esperando&lt;div&gt;en L1&lt;/div&gt;" style="text;html=1;align=center;verticalAlign=middle;resizable=0;points=[];autosize=1;strokeColor=none;fillColor=none;" parent="1" vertex="1">
          <mxGeometry x="60" y="223" width="120" height="40" as="geometry" />
        </mxCell>
        <mxCell id="nc8W8f6lbi63a8oRN4Be-16" value="Masas Esperando&lt;div&gt;en L2&lt;/div&gt;" style="text;html=1;align=center;verticalAlign=middle;resizable=0;points=[];autosize=1;strokeColor=none;fillColor=none;" parent="1" vertex="1">
          <mxGeometry x="50" y="510" width="120" height="40" as="geometry" />
        </mxCell>
        <mxCell id="nc8W8f6lbi63a8oRN4Be-17" value="" style="ellipse;whiteSpace=wrap;html=1;aspect=fixed;" parent="1" vertex="1">
          <mxGeometry x="260.0000000000001" y="180" width="40" height="40" as="geometry" />
        </mxCell>
        <mxCell id="nc8W8f6lbi63a8oRN4Be-18" value="" style="endArrow=none;html=1;rounded=0;" parent="1" edge="1">
          <mxGeometry width="50" height="50" relative="1" as="geometry">
            <mxPoint x="360.0000000000001" y="240" as="sourcePoint" />
            <mxPoint x="360.0000000000001" y="160" as="targetPoint" />
          </mxGeometry>
        </mxCell>
        <mxCell id="nc8W8f6lbi63a8oRN4Be-19" value="" style="endArrow=classic;html=1;rounded=0;" parent="1" edge="1">
          <mxGeometry width="50" height="50" relative="1" as="geometry">
            <mxPoint x="360.0000000000001" y="200" as="sourcePoint" />
            <mxPoint x="420.0000000000001" y="200" as="targetPoint" />
          </mxGeometry>
        </mxCell>
        <mxCell id="nc8W8f6lbi63a8oRN4Be-20" value="" style="endArrow=classic;html=1;rounded=0;" parent="1" edge="1">
          <mxGeometry width="50" height="50" relative="1" as="geometry">
            <mxPoint x="300.0000000000001" y="199.57999999999998" as="sourcePoint" />
            <mxPoint x="360.0000000000001" y="200" as="targetPoint" />
          </mxGeometry>
        </mxCell>
        <mxCell id="nc8W8f6lbi63a8oRN4Be-21" value="" style="ellipse;whiteSpace=wrap;html=1;aspect=fixed;" parent="1" vertex="1">
          <mxGeometry x="260.0000000000001" y="460" width="40" height="40" as="geometry" />
        </mxCell>
        <mxCell id="nc8W8f6lbi63a8oRN4Be-22" value="" style="endArrow=none;html=1;rounded=0;" parent="1" edge="1">
          <mxGeometry width="50" height="50" relative="1" as="geometry">
            <mxPoint x="360.0000000000001" y="520" as="sourcePoint" />
            <mxPoint x="360.0000000000001" y="440" as="targetPoint" />
          </mxGeometry>
        </mxCell>
        <mxCell id="nc8W8f6lbi63a8oRN4Be-23" value="" style="endArrow=classic;html=1;rounded=0;" parent="1" edge="1">
          <mxGeometry width="50" height="50" relative="1" as="geometry">
            <mxPoint x="360.0000000000001" y="480" as="sourcePoint" />
            <mxPoint x="420.0000000000001" y="480" as="targetPoint" />
          </mxGeometry>
        </mxCell>
        <mxCell id="nc8W8f6lbi63a8oRN4Be-24" value="" style="endArrow=classic;html=1;rounded=0;" parent="1" edge="1">
          <mxGeometry width="50" height="50" relative="1" as="geometry">
            <mxPoint x="300.0000000000001" y="479.58" as="sourcePoint" />
            <mxPoint x="360.0000000000001" y="480" as="targetPoint" />
          </mxGeometry>
        </mxCell>
        <mxCell id="nc8W8f6lbi63a8oRN4Be-25" value="Estirando Masa&lt;div&gt;en L1&lt;/div&gt;" style="text;html=1;align=center;verticalAlign=middle;resizable=0;points=[];autosize=1;strokeColor=none;fillColor=none;" parent="1" vertex="1">
          <mxGeometry x="220" y="230" width="110" height="40" as="geometry" />
        </mxCell>
        <mxCell id="nc8W8f6lbi63a8oRN4Be-26" value="Estirando Masas&lt;div&gt;en L2&lt;/div&gt;" style="text;html=1;align=center;verticalAlign=middle;resizable=0;points=[];autosize=1;strokeColor=none;fillColor=none;" parent="1" vertex="1">
          <mxGeometry x="220" y="510" width="110" height="40" as="geometry" />
        </mxCell>
        <mxCell id="nc8W8f6lbi63a8oRN4Be-30" value="Empleado&lt;div&gt;Libre&lt;/div&gt;" style="text;html=1;align=center;verticalAlign=middle;resizable=0;points=[];autosize=1;strokeColor=none;fillColor=none;" parent="1" vertex="1">
          <mxGeometry x="240" y="290" width="80" height="40" as="geometry" />
        </mxCell>
        <mxCell id="nc8W8f6lbi63a8oRN4Be-31" style="edgeStyle=orthogonalEdgeStyle;rounded=0;orthogonalLoop=1;jettySize=auto;html=1;curved=1;" parent="1" source="nc8W8f6lbi63a8oRN4Be-33" edge="1">
          <mxGeometry relative="1" as="geometry">
            <mxPoint x="190" y="450" as="targetPoint" />
          </mxGeometry>
        </mxCell>
        <mxCell id="nc8W8f6lbi63a8oRN4Be-32" style="edgeStyle=orthogonalEdgeStyle;rounded=0;orthogonalLoop=1;jettySize=auto;html=1;curved=1;endArrow=none;endFill=0;startArrow=classic;startFill=1;" parent="1" source="nc8W8f6lbi63a8oRN4Be-33" edge="1">
          <mxGeometry relative="1" as="geometry">
            <mxPoint x="370" y="450" as="targetPoint" />
          </mxGeometry>
        </mxCell>
        <mxCell id="nc8W8f6lbi63a8oRN4Be-33" value="O" style="ellipse;whiteSpace=wrap;html=1;aspect=fixed;" parent="1" vertex="1">
          <mxGeometry x="260" y="330" width="40" height="40" as="geometry" />
        </mxCell>
        <mxCell id="nc8W8f6lbi63a8oRN4Be-34" style="edgeStyle=orthogonalEdgeStyle;rounded=0;orthogonalLoop=1;jettySize=auto;html=1;curved=1;exitX=-0.033;exitY=0.308;exitDx=0;exitDy=0;exitPerimeter=0;" parent="1" source="nc8W8f6lbi63a8oRN4Be-36" edge="1">
          <mxGeometry relative="1" as="geometry">
            <mxPoint x="190" y="220" as="targetPoint" />
          </mxGeometry>
        </mxCell>
        <mxCell id="nc8W8f6lbi63a8oRN4Be-35" style="edgeStyle=orthogonalEdgeStyle;rounded=0;orthogonalLoop=1;jettySize=auto;html=1;curved=1;endArrow=none;endFill=0;startArrow=classic;startFill=1;" parent="1" edge="1">
          <mxGeometry relative="1" as="geometry">
            <mxPoint x="370" y="220" as="targetPoint" />
            <mxPoint x="300" y="340" as="sourcePoint" />
          </mxGeometry>
        </mxCell>
        <mxCell id="nc8W8f6lbi63a8oRN4Be-36" value="OOO" style="ellipse;whiteSpace=wrap;html=1;aspect=fixed;" parent="1" vertex="1">
          <mxGeometry x="260" y="330" width="40" height="40" as="geometry" />
        </mxCell>
        <mxCell id="nc8W8f6lbi63a8oRN4Be-37" value="Comienza&lt;div&gt;Estiramiento&lt;/div&gt;&lt;div&gt;en L1&lt;/div&gt;" style="text;html=1;align=center;verticalAlign=middle;resizable=0;points=[];autosize=1;strokeColor=none;fillColor=none;" parent="1" vertex="1">
          <mxGeometry x="150" y="100" width="90" height="60" as="geometry" />
        </mxCell>
        <mxCell id="nc8W8f6lbi63a8oRN4Be-38" value="&lt;h5&gt;&lt;span style=&quot;font-weight: normal;&quot;&gt;Comienza&lt;br&gt;Estiramiento&lt;br&gt;en L2&lt;/span&gt;&lt;/h5&gt;" style="text;html=1;align=left;verticalAlign=middle;resizable=0;points=[];autosize=1;strokeColor=none;fillColor=none;" parent="1" vertex="1">
          <mxGeometry x="205" y="380" width="80" height="80" as="geometry" />
        </mxCell>
        <mxCell id="nc8W8f6lbi63a8oRN4Be-60" style="edgeStyle=orthogonalEdgeStyle;rounded=0;orthogonalLoop=1;jettySize=auto;html=1;" parent="1" source="nc8W8f6lbi63a8oRN4Be-39" edge="1">
          <mxGeometry relative="1" as="geometry">
            <mxPoint x="520" y="200" as="targetPoint" />
          </mxGeometry>
        </mxCell>
        <mxCell id="nc8W8f6lbi63a8oRN4Be-39" value="" style="ellipse;whiteSpace=wrap;html=1;aspect=fixed;" parent="1" vertex="1">
          <mxGeometry x="420.0000000000001" y="180" width="40" height="40" as="geometry" />
        </mxCell>
        <mxCell id="nc8W8f6lbi63a8oRN4Be-43" value="&lt;div&gt;Fin de Estiramiento&lt;/div&gt;&lt;div&gt;de Masa&lt;/div&gt;&lt;div&gt;en L1&lt;/div&gt;" style="text;html=1;align=center;verticalAlign=middle;resizable=0;points=[];autosize=1;strokeColor=none;fillColor=none;" parent="1" vertex="1">
          <mxGeometry x="285" y="93" width="130" height="60" as="geometry" />
        </mxCell>
        <mxCell id="nc8W8f6lbi63a8oRN4Be-44" value="Esperando Corte&lt;div&gt;de Masa en L1&lt;/div&gt;" style="text;html=1;align=center;verticalAlign=middle;resizable=0;points=[];autosize=1;strokeColor=none;fillColor=none;" parent="1" vertex="1">
          <mxGeometry x="385" y="218" width="110" height="40" as="geometry" />
        </mxCell>
        <mxCell id="nc8W8f6lbi63a8oRN4Be-61" value="" style="ellipse;whiteSpace=wrap;html=1;aspect=fixed;" parent="1" vertex="1">
          <mxGeometry x="420.0000000000001" y="182" width="40" height="40" as="geometry" />
        </mxCell>
        <mxCell id="nc8W8f6lbi63a8oRN4Be-62" value="" style="endArrow=none;html=1;rounded=0;" parent="1" edge="1">
          <mxGeometry width="50" height="50" relative="1" as="geometry">
            <mxPoint x="520.0000000000001" y="242" as="sourcePoint" />
            <mxPoint x="520.0000000000001" y="162" as="targetPoint" />
          </mxGeometry>
        </mxCell>
        <mxCell id="nc8W8f6lbi63a8oRN4Be-63" value="" style="endArrow=classic;html=1;rounded=0;" parent="1" edge="1">
          <mxGeometry width="50" height="50" relative="1" as="geometry">
            <mxPoint x="520.0000000000001" y="202" as="sourcePoint" />
            <mxPoint x="580.0000000000001" y="202" as="targetPoint" />
          </mxGeometry>
        </mxCell>
        <mxCell id="nc8W8f6lbi63a8oRN4Be-65" value="" style="ellipse;whiteSpace=wrap;html=1;aspect=fixed;" parent="1" vertex="1">
          <mxGeometry x="580.0000000000001" y="180" width="40" height="40" as="geometry" />
        </mxCell>
        <mxCell id="nc8W8f6lbi63a8oRN4Be-66" value="" style="endArrow=none;html=1;rounded=0;" parent="1" edge="1">
          <mxGeometry width="50" height="50" relative="1" as="geometry">
            <mxPoint x="680.0000000000001" y="240" as="sourcePoint" />
            <mxPoint x="680.0000000000001" y="160" as="targetPoint" />
          </mxGeometry>
        </mxCell>
        <mxCell id="nc8W8f6lbi63a8oRN4Be-67" value="" style="endArrow=classic;html=1;rounded=0;" parent="1" edge="1">
          <mxGeometry width="50" height="50" relative="1" as="geometry">
            <mxPoint x="680.0000000000001" y="200" as="sourcePoint" />
            <mxPoint x="740.0000000000001" y="200" as="targetPoint" />
          </mxGeometry>
        </mxCell>
        <mxCell id="nc8W8f6lbi63a8oRN4Be-68" value="" style="endArrow=classic;html=1;rounded=0;" parent="1" edge="1">
          <mxGeometry width="50" height="50" relative="1" as="geometry">
            <mxPoint x="620.0000000000001" y="199.57999999999998" as="sourcePoint" />
            <mxPoint x="680.0000000000001" y="200" as="targetPoint" />
          </mxGeometry>
        </mxCell>
        <mxCell id="nc8W8f6lbi63a8oRN4Be-70" value="Comienza&lt;div&gt;Corte&lt;/div&gt;&lt;div&gt;en L1&lt;/div&gt;" style="text;html=1;align=center;verticalAlign=middle;resizable=0;points=[];autosize=1;strokeColor=none;fillColor=none;" parent="1" vertex="1">
          <mxGeometry x="510" y="101.5" width="80" height="60" as="geometry" />
        </mxCell>
        <mxCell id="nc8W8f6lbi63a8oRN4Be-71" value="Cortando Masa&lt;div&gt;en L1&lt;/div&gt;" style="text;html=1;align=center;verticalAlign=middle;resizable=0;points=[];autosize=1;strokeColor=none;fillColor=none;" parent="1" vertex="1">
          <mxGeometry x="545" y="223" width="110" height="40" as="geometry" />
        </mxCell>
        <mxCell id="nc8W8f6lbi63a8oRN4Be-73" value="&lt;div&gt;Fin&lt;/div&gt;&lt;div&gt;Corte&lt;/div&gt;&lt;div&gt;en L1&lt;/div&gt;" style="text;html=1;align=center;verticalAlign=middle;resizable=0;points=[];autosize=1;strokeColor=none;fillColor=none;" parent="1" vertex="1">
          <mxGeometry x="625" y="100" width="50" height="60" as="geometry" />
        </mxCell>
        <mxCell id="nc8W8f6lbi63a8oRN4Be-74" style="edgeStyle=orthogonalEdgeStyle;rounded=0;orthogonalLoop=1;jettySize=auto;html=1;curved=1;" parent="1" source="nc8W8f6lbi63a8oRN4Be-76" edge="1">
          <mxGeometry relative="1" as="geometry">
            <mxPoint x="510" y="172" as="targetPoint" />
          </mxGeometry>
        </mxCell>
        <mxCell id="nc8W8f6lbi63a8oRN4Be-75" style="edgeStyle=orthogonalEdgeStyle;rounded=0;orthogonalLoop=1;jettySize=auto;html=1;curved=1;endArrow=none;endFill=0;startArrow=classic;startFill=1;" parent="1" source="nc8W8f6lbi63a8oRN4Be-76" edge="1">
          <mxGeometry relative="1" as="geometry">
            <mxPoint x="690" y="172" as="targetPoint" />
          </mxGeometry>
        </mxCell>
        <mxCell id="nc8W8f6lbi63a8oRN4Be-76" value="O" style="ellipse;whiteSpace=wrap;html=1;aspect=fixed;" parent="1" vertex="1">
          <mxGeometry x="580" y="52" width="40" height="40" as="geometry" />
        </mxCell>
        <mxCell id="nc8W8f6lbi63a8oRN4Be-77" value="Maquina de Corte 1 Libre" style="text;html=1;align=center;verticalAlign=middle;resizable=0;points=[];autosize=1;strokeColor=none;fillColor=none;" parent="1" vertex="1">
          <mxGeometry x="470" y="18" width="160" height="30" as="geometry" />
        </mxCell>
        <mxCell id="nc8W8f6lbi63a8oRN4Be-79" value="" style="endArrow=classic;html=1;rounded=0;" parent="1" edge="1">
          <mxGeometry width="50" height="50" relative="1" as="geometry">
            <mxPoint x="680.0000000000001" y="208.21" as="sourcePoint" />
            <mxPoint x="740.0000000000001" y="208.21" as="targetPoint" />
          </mxGeometry>
        </mxCell>
        <mxCell id="nc8W8f6lbi63a8oRN4Be-80" value="" style="endArrow=classic;html=1;rounded=0;" parent="1" edge="1">
          <mxGeometry width="50" height="50" relative="1" as="geometry">
            <mxPoint x="680.0000000000001" y="188.5" as="sourcePoint" />
            <mxPoint x="740.0000000000001" y="188.5" as="targetPoint" />
          </mxGeometry>
        </mxCell>
        <mxCell id="nc8W8f6lbi63a8oRN4Be-81" value="" style="ellipse;whiteSpace=wrap;html=1;aspect=fixed;" parent="1" vertex="1">
          <mxGeometry x="740.0000000000001" y="180" width="40" height="40" as="geometry" />
        </mxCell>
        <mxCell id="nc8W8f6lbi63a8oRN4Be-82" value="" style="endArrow=none;html=1;rounded=0;" parent="1" edge="1">
          <mxGeometry width="50" height="50" relative="1" as="geometry">
            <mxPoint x="840.0000000000001" y="240" as="sourcePoint" />
            <mxPoint x="840.0000000000001" y="160" as="targetPoint" />
          </mxGeometry>
        </mxCell>
        <mxCell id="nc8W8f6lbi63a8oRN4Be-83" value="" style="endArrow=classic;html=1;rounded=0;" parent="1" edge="1">
          <mxGeometry width="50" height="50" relative="1" as="geometry">
            <mxPoint x="840.0000000000001" y="200" as="sourcePoint" />
            <mxPoint x="900.0000000000001" y="200" as="targetPoint" />
          </mxGeometry>
        </mxCell>
        <mxCell id="nc8W8f6lbi63a8oRN4Be-84" value="" style="endArrow=classic;html=1;rounded=0;" parent="1" edge="1">
          <mxGeometry width="50" height="50" relative="1" as="geometry">
            <mxPoint x="780.0000000000001" y="199.57999999999998" as="sourcePoint" />
            <mxPoint x="840.0000000000001" y="200" as="targetPoint" />
          </mxGeometry>
        </mxCell>
        <mxCell id="nc8W8f6lbi63a8oRN4Be-85" value="Canelones&lt;div&gt;Esperando&lt;/div&gt;&lt;div&gt;Relleno&lt;/div&gt;" style="text;html=1;align=center;verticalAlign=middle;resizable=0;points=[];autosize=1;strokeColor=none;fillColor=none;" parent="1" vertex="1">
          <mxGeometry x="720" y="223" width="80" height="60" as="geometry" />
        </mxCell>
        <mxCell id="nc8W8f6lbi63a8oRN4Be-88" value="" style="ellipse;whiteSpace=wrap;html=1;aspect=fixed;" parent="1" vertex="1">
          <mxGeometry x="900.0000000000001" y="180" width="40" height="40" as="geometry" />
        </mxCell>
        <mxCell id="nc8W8f6lbi63a8oRN4Be-89" value="" style="endArrow=none;html=1;rounded=0;" parent="1" edge="1">
          <mxGeometry width="50" height="50" relative="1" as="geometry">
            <mxPoint x="1000.0000000000001" y="240" as="sourcePoint" />
            <mxPoint x="1000.0000000000001" y="160" as="targetPoint" />
          </mxGeometry>
        </mxCell>
        <mxCell id="nc8W8f6lbi63a8oRN4Be-90" value="" style="endArrow=classic;html=1;rounded=0;" parent="1" edge="1">
          <mxGeometry width="50" height="50" relative="1" as="geometry">
            <mxPoint x="1000.0000000000001" y="200" as="sourcePoint" />
            <mxPoint x="1060" y="200" as="targetPoint" />
          </mxGeometry>
        </mxCell>
        <mxCell id="nc8W8f6lbi63a8oRN4Be-91" value="" style="endArrow=classic;html=1;rounded=0;" parent="1" edge="1">
          <mxGeometry width="50" height="50" relative="1" as="geometry">
            <mxPoint x="940.0000000000001" y="199.57999999999998" as="sourcePoint" />
            <mxPoint x="1000.0000000000001" y="200" as="targetPoint" />
          </mxGeometry>
        </mxCell>
        <mxCell id="nc8W8f6lbi63a8oRN4Be-92" style="edgeStyle=orthogonalEdgeStyle;rounded=0;orthogonalLoop=1;jettySize=auto;html=1;curved=1;" parent="1" source="nc8W8f6lbi63a8oRN4Be-94" edge="1">
          <mxGeometry relative="1" as="geometry">
            <mxPoint x="830" y="168" as="targetPoint" />
          </mxGeometry>
        </mxCell>
        <mxCell id="nc8W8f6lbi63a8oRN4Be-93" style="edgeStyle=orthogonalEdgeStyle;rounded=0;orthogonalLoop=1;jettySize=auto;html=1;curved=1;endArrow=none;endFill=0;startArrow=classic;startFill=1;" parent="1" source="nc8W8f6lbi63a8oRN4Be-94" edge="1">
          <mxGeometry relative="1" as="geometry">
            <mxPoint x="1010" y="168" as="targetPoint" />
          </mxGeometry>
        </mxCell>
        <mxCell id="nc8W8f6lbi63a8oRN4Be-94" value="O" style="ellipse;whiteSpace=wrap;html=1;aspect=fixed;" parent="1" vertex="1">
          <mxGeometry x="900" y="48" width="40" height="40" as="geometry" />
        </mxCell>
        <mxCell id="nc8W8f6lbi63a8oRN4Be-95" value="Comienza&lt;div&gt;Relleno de c&lt;/div&gt;" style="text;html=1;align=center;verticalAlign=middle;resizable=0;points=[];autosize=1;strokeColor=none;fillColor=none;" parent="1" vertex="1">
          <mxGeometry x="827" y="121.5" width="90" height="40" as="geometry" />
        </mxCell>
        <mxCell id="nc8W8f6lbi63a8oRN4Be-97" value="&lt;div&gt;Fin de&lt;/div&gt;&lt;div&gt;Relleno de c&lt;/div&gt;" style="text;html=1;align=center;verticalAlign=middle;resizable=0;points=[];autosize=1;strokeColor=none;fillColor=none;" parent="1" vertex="1">
          <mxGeometry x="920" y="121.5" width="90" height="40" as="geometry" />
        </mxCell>
        <mxCell id="nc8W8f6lbi63a8oRN4Be-98" value="Maquina de Relleno de C Libre" style="text;html=1;align=center;verticalAlign=middle;resizable=0;points=[];autosize=1;strokeColor=none;fillColor=none;" parent="1" vertex="1">
          <mxGeometry x="815" y="8" width="190" height="30" as="geometry" />
        </mxCell>
        <mxCell id="nc8W8f6lbi63a8oRN4Be-99" value="" style="ellipse;whiteSpace=wrap;html=1;aspect=fixed;" parent="1" vertex="1">
          <mxGeometry x="1060" y="182" width="40" height="40" as="geometry" />
        </mxCell>
        <mxCell id="nc8W8f6lbi63a8oRN4Be-100" value="" style="endArrow=none;html=1;rounded=0;" parent="1" edge="1">
          <mxGeometry width="50" height="50" relative="1" as="geometry">
            <mxPoint x="1160" y="242" as="sourcePoint" />
            <mxPoint x="1160" y="162" as="targetPoint" />
          </mxGeometry>
        </mxCell>
        <mxCell id="nc8W8f6lbi63a8oRN4Be-101" value="" style="endArrow=classic;html=1;rounded=0;" parent="1" edge="1">
          <mxGeometry width="50" height="50" relative="1" as="geometry">
            <mxPoint x="1160" y="202" as="sourcePoint" />
            <mxPoint x="1220" y="202" as="targetPoint" />
          </mxGeometry>
        </mxCell>
        <mxCell id="nc8W8f6lbi63a8oRN4Be-102" value="" style="endArrow=classic;html=1;rounded=0;" parent="1" edge="1">
          <mxGeometry width="50" height="50" relative="1" as="geometry">
            <mxPoint x="1100" y="201.57999999999998" as="sourcePoint" />
            <mxPoint x="1160" y="202" as="targetPoint" />
          </mxGeometry>
        </mxCell>
        <mxCell id="nc8W8f6lbi63a8oRN4Be-103" value="Canelones&lt;div&gt;Esperando a guardar&lt;/div&gt;" style="text;html=1;align=center;verticalAlign=middle;resizable=0;points=[];autosize=1;strokeColor=none;fillColor=none;" parent="1" vertex="1">
          <mxGeometry x="1010" y="222" width="140" height="40" as="geometry" />
        </mxCell>
        <mxCell id="nc8W8f6lbi63a8oRN4Be-107" value="" style="endArrow=classic;html=1;rounded=0;" parent="1" edge="1">
          <mxGeometry width="50" height="50" relative="1" as="geometry">
            <mxPoint x="1100" y="190" as="sourcePoint" />
            <mxPoint x="1160" y="190" as="targetPoint" />
          </mxGeometry>
        </mxCell>
        <mxCell id="nc8W8f6lbi63a8oRN4Be-108" value="" style="endArrow=classic;html=1;rounded=0;" parent="1" edge="1">
          <mxGeometry width="50" height="50" relative="1" as="geometry">
            <mxPoint x="1100" y="210" as="sourcePoint" />
            <mxPoint x="1160" y="210" as="targetPoint" />
          </mxGeometry>
        </mxCell>
        <mxCell id="nc8W8f6lbi63a8oRN4Be-109" value="Comienza&lt;div&gt;Armado Caja C&lt;/div&gt;" style="text;html=1;align=center;verticalAlign=middle;resizable=0;points=[];autosize=1;strokeColor=none;fillColor=none;" parent="1" vertex="1">
          <mxGeometry x="1100" y="110" width="110" height="40" as="geometry" />
        </mxCell>
        <mxCell id="nc8W8f6lbi63a8oRN4Be-110" value="" style="ellipse;whiteSpace=wrap;html=1;aspect=fixed;" parent="1" vertex="1">
          <mxGeometry x="1220" y="182" width="40" height="40" as="geometry" />
        </mxCell>
        <mxCell id="nc8W8f6lbi63a8oRN4Be-111" value="" style="endArrow=none;html=1;rounded=0;" parent="1" edge="1">
          <mxGeometry width="50" height="50" relative="1" as="geometry">
            <mxPoint x="1320" y="242" as="sourcePoint" />
            <mxPoint x="1320" y="162" as="targetPoint" />
          </mxGeometry>
        </mxCell>
        <mxCell id="nc8W8f6lbi63a8oRN4Be-113" value="" style="endArrow=classic;html=1;rounded=0;" parent="1" edge="1">
          <mxGeometry width="50" height="50" relative="1" as="geometry">
            <mxPoint x="1260" y="201.57999999999998" as="sourcePoint" />
            <mxPoint x="1320" y="202" as="targetPoint" />
          </mxGeometry>
        </mxCell>
        <mxCell id="nc8W8f6lbi63a8oRN4Be-114" value="Armando&lt;div&gt;Caja C&lt;/div&gt;" style="text;html=1;align=center;verticalAlign=middle;resizable=0;points=[];autosize=1;strokeColor=none;fillColor=none;" parent="1" vertex="1">
          <mxGeometry x="1205" y="230" width="70" height="40" as="geometry" />
        </mxCell>
        <mxCell id="nc8W8f6lbi63a8oRN4Be-115" value="Fin&lt;div&gt;de Armado Caja C&lt;/div&gt;" style="text;html=1;align=center;verticalAlign=middle;resizable=0;points=[];autosize=1;strokeColor=none;fillColor=none;" parent="1" vertex="1">
          <mxGeometry x="1260" y="113" width="120" height="40" as="geometry" />
        </mxCell>
        <mxCell id="nc8W8f6lbi63a8oRN4Be-117" style="edgeStyle=orthogonalEdgeStyle;rounded=0;orthogonalLoop=1;jettySize=auto;html=1;" parent="1" source="nc8W8f6lbi63a8oRN4Be-118" edge="1">
          <mxGeometry relative="1" as="geometry">
            <mxPoint x="520" y="482" as="targetPoint" />
          </mxGeometry>
        </mxCell>
        <mxCell id="nc8W8f6lbi63a8oRN4Be-118" value="" style="ellipse;whiteSpace=wrap;html=1;aspect=fixed;" parent="1" vertex="1">
          <mxGeometry x="420.0000000000001" y="462" width="40" height="40" as="geometry" />
        </mxCell>
        <mxCell id="nc8W8f6lbi63a8oRN4Be-119" value="" style="ellipse;whiteSpace=wrap;html=1;aspect=fixed;" parent="1" vertex="1">
          <mxGeometry x="420.0000000000001" y="464" width="40" height="40" as="geometry" />
        </mxCell>
        <mxCell id="nc8W8f6lbi63a8oRN4Be-120" value="" style="endArrow=none;html=1;rounded=0;" parent="1" edge="1">
          <mxGeometry width="50" height="50" relative="1" as="geometry">
            <mxPoint x="520.0000000000001" y="524" as="sourcePoint" />
            <mxPoint x="520.0000000000001" y="444" as="targetPoint" />
          </mxGeometry>
        </mxCell>
        <mxCell id="nc8W8f6lbi63a8oRN4Be-121" value="" style="endArrow=classic;html=1;rounded=0;" parent="1" edge="1">
          <mxGeometry width="50" height="50" relative="1" as="geometry">
            <mxPoint x="520.0000000000001" y="484" as="sourcePoint" />
            <mxPoint x="580.0000000000001" y="484" as="targetPoint" />
          </mxGeometry>
        </mxCell>
        <mxCell id="nc8W8f6lbi63a8oRN4Be-122" value="" style="ellipse;whiteSpace=wrap;html=1;aspect=fixed;" parent="1" vertex="1">
          <mxGeometry x="580.0000000000001" y="462" width="40" height="40" as="geometry" />
        </mxCell>
        <mxCell id="nc8W8f6lbi63a8oRN4Be-123" value="" style="endArrow=none;html=1;rounded=0;" parent="1" edge="1">
          <mxGeometry width="50" height="50" relative="1" as="geometry">
            <mxPoint x="680.0000000000001" y="522" as="sourcePoint" />
            <mxPoint x="680.0000000000001" y="442" as="targetPoint" />
          </mxGeometry>
        </mxCell>
        <mxCell id="nc8W8f6lbi63a8oRN4Be-124" value="" style="endArrow=classic;html=1;rounded=0;" parent="1" edge="1">
          <mxGeometry width="50" height="50" relative="1" as="geometry">
            <mxPoint x="680.0000000000001" y="461.5" as="sourcePoint" />
            <mxPoint x="740.0000000000001" y="461.5" as="targetPoint" />
          </mxGeometry>
        </mxCell>
        <mxCell id="nc8W8f6lbi63a8oRN4Be-125" value="" style="endArrow=classic;html=1;rounded=0;" parent="1" edge="1">
          <mxGeometry width="50" height="50" relative="1" as="geometry">
            <mxPoint x="620.0000000000001" y="481.58" as="sourcePoint" />
            <mxPoint x="680.0000000000001" y="482" as="targetPoint" />
          </mxGeometry>
        </mxCell>
        <mxCell id="nc8W8f6lbi63a8oRN4Be-126" value="Comienza&lt;div&gt;Corte&lt;/div&gt;&lt;div&gt;en L2&lt;/div&gt;" style="text;html=1;align=center;verticalAlign=middle;resizable=0;points=[];autosize=1;strokeColor=none;fillColor=none;" parent="1" vertex="1">
          <mxGeometry x="510" y="383.5" width="80" height="60" as="geometry" />
        </mxCell>
        <mxCell id="nc8W8f6lbi63a8oRN4Be-127" value="Cortando Masa&lt;div&gt;en L2&lt;/div&gt;" style="text;html=1;align=center;verticalAlign=middle;resizable=0;points=[];autosize=1;strokeColor=none;fillColor=none;" parent="1" vertex="1">
          <mxGeometry x="545" y="505" width="110" height="40" as="geometry" />
        </mxCell>
        <mxCell id="nc8W8f6lbi63a8oRN4Be-128" value="&lt;div&gt;Fin&lt;/div&gt;&lt;div&gt;Corte&lt;/div&gt;&lt;div&gt;en L2&lt;/div&gt;" style="text;html=1;align=center;verticalAlign=middle;resizable=0;points=[];autosize=1;strokeColor=none;fillColor=none;" parent="1" vertex="1">
          <mxGeometry x="625" y="382" width="50" height="60" as="geometry" />
        </mxCell>
        <mxCell id="nc8W8f6lbi63a8oRN4Be-129" style="edgeStyle=orthogonalEdgeStyle;rounded=0;orthogonalLoop=1;jettySize=auto;html=1;curved=1;" parent="1" source="nc8W8f6lbi63a8oRN4Be-131" edge="1">
          <mxGeometry relative="1" as="geometry">
            <mxPoint x="510" y="454" as="targetPoint" />
          </mxGeometry>
        </mxCell>
        <mxCell id="nc8W8f6lbi63a8oRN4Be-130" style="edgeStyle=orthogonalEdgeStyle;rounded=0;orthogonalLoop=1;jettySize=auto;html=1;curved=1;endArrow=none;endFill=0;startArrow=classic;startFill=1;" parent="1" source="nc8W8f6lbi63a8oRN4Be-131" edge="1">
          <mxGeometry relative="1" as="geometry">
            <mxPoint x="690" y="454" as="targetPoint" />
          </mxGeometry>
        </mxCell>
        <mxCell id="nc8W8f6lbi63a8oRN4Be-131" value="O" style="ellipse;whiteSpace=wrap;html=1;aspect=fixed;" parent="1" vertex="1">
          <mxGeometry x="580" y="334" width="40" height="40" as="geometry" />
        </mxCell>
        <mxCell id="nc8W8f6lbi63a8oRN4Be-132" value="Maquina de Corte 2 Libre" style="text;html=1;align=center;verticalAlign=middle;resizable=0;points=[];autosize=1;strokeColor=none;fillColor=none;" parent="1" vertex="1">
          <mxGeometry x="470" y="300" width="160" height="30" as="geometry" />
        </mxCell>
        <mxCell id="nc8W8f6lbi63a8oRN4Be-133" value="" style="endArrow=classic;html=1;rounded=0;" parent="1" edge="1">
          <mxGeometry width="50" height="50" relative="1" as="geometry">
            <mxPoint x="680.0000000000001" y="469.71000000000004" as="sourcePoint" />
            <mxPoint x="740.0000000000001" y="469.71000000000004" as="targetPoint" />
          </mxGeometry>
        </mxCell>
        <mxCell id="nc8W8f6lbi63a8oRN4Be-134" value="" style="endArrow=classic;html=1;rounded=0;" parent="1" edge="1">
          <mxGeometry width="50" height="50" relative="1" as="geometry">
            <mxPoint x="680.0000000000001" y="450" as="sourcePoint" />
            <mxPoint x="740.0000000000001" y="450" as="targetPoint" />
          </mxGeometry>
        </mxCell>
        <mxCell id="nc8W8f6lbi63a8oRN4Be-256" style="edgeStyle=orthogonalEdgeStyle;rounded=0;orthogonalLoop=1;jettySize=auto;html=1;" parent="1" source="nc8W8f6lbi63a8oRN4Be-135" edge="1">
          <mxGeometry relative="1" as="geometry">
            <mxPoint x="840" y="482" as="targetPoint" />
          </mxGeometry>
        </mxCell>
        <mxCell id="nc8W8f6lbi63a8oRN4Be-135" value="" style="ellipse;whiteSpace=wrap;html=1;aspect=fixed;" parent="1" vertex="1">
          <mxGeometry x="740.0000000000001" y="462" width="40" height="40" as="geometry" />
        </mxCell>
        <mxCell id="nc8W8f6lbi63a8oRN4Be-136" value="" style="endArrow=none;html=1;rounded=0;" parent="1" edge="1">
          <mxGeometry width="50" height="50" relative="1" as="geometry">
            <mxPoint x="840.0000000000001" y="522" as="sourcePoint" />
            <mxPoint x="840.0000000000001" y="442" as="targetPoint" />
          </mxGeometry>
        </mxCell>
        <mxCell id="nc8W8f6lbi63a8oRN4Be-137" value="" style="endArrow=classic;html=1;rounded=0;" parent="1" edge="1">
          <mxGeometry width="50" height="50" relative="1" as="geometry">
            <mxPoint x="840.0000000000001" y="482" as="sourcePoint" />
            <mxPoint x="900.0000000000001" y="482" as="targetPoint" />
          </mxGeometry>
        </mxCell>
        <mxCell id="nc8W8f6lbi63a8oRN4Be-139" value="&lt;div&gt;Sorrentinos Esperando&lt;/div&gt;&lt;div&gt;Relleno&lt;/div&gt;" style="text;html=1;align=center;verticalAlign=middle;resizable=0;points=[];autosize=1;strokeColor=none;fillColor=none;" parent="1" vertex="1">
          <mxGeometry x="685" y="515" width="150" height="40" as="geometry" />
        </mxCell>
        <mxCell id="nc8W8f6lbi63a8oRN4Be-142" value="" style="ellipse;whiteSpace=wrap;html=1;aspect=fixed;" parent="1" vertex="1">
          <mxGeometry x="900.0000000000001" y="462" width="40" height="40" as="geometry" />
        </mxCell>
        <mxCell id="nc8W8f6lbi63a8oRN4Be-143" value="" style="endArrow=none;html=1;rounded=0;" parent="1" edge="1">
          <mxGeometry width="50" height="50" relative="1" as="geometry">
            <mxPoint x="1000.0000000000001" y="522" as="sourcePoint" />
            <mxPoint x="1000.0000000000001" y="442" as="targetPoint" />
          </mxGeometry>
        </mxCell>
        <mxCell id="nc8W8f6lbi63a8oRN4Be-145" value="" style="endArrow=classic;html=1;rounded=0;" parent="1" edge="1">
          <mxGeometry width="50" height="50" relative="1" as="geometry">
            <mxPoint x="940.0000000000001" y="481.58" as="sourcePoint" />
            <mxPoint x="1000.0000000000001" y="482" as="targetPoint" />
          </mxGeometry>
        </mxCell>
        <mxCell id="nc8W8f6lbi63a8oRN4Be-146" style="edgeStyle=orthogonalEdgeStyle;rounded=0;orthogonalLoop=1;jettySize=auto;html=1;curved=1;" parent="1" source="nc8W8f6lbi63a8oRN4Be-148" edge="1">
          <mxGeometry relative="1" as="geometry">
            <mxPoint x="830" y="450" as="targetPoint" />
          </mxGeometry>
        </mxCell>
        <mxCell id="nc8W8f6lbi63a8oRN4Be-147" style="edgeStyle=orthogonalEdgeStyle;rounded=0;orthogonalLoop=1;jettySize=auto;html=1;curved=1;endArrow=none;endFill=0;startArrow=classic;startFill=1;" parent="1" source="nc8W8f6lbi63a8oRN4Be-148" edge="1">
          <mxGeometry relative="1" as="geometry">
            <mxPoint x="1010" y="450" as="targetPoint" />
          </mxGeometry>
        </mxCell>
        <mxCell id="nc8W8f6lbi63a8oRN4Be-148" value="O" style="ellipse;whiteSpace=wrap;html=1;aspect=fixed;" parent="1" vertex="1">
          <mxGeometry x="900" y="330" width="40" height="40" as="geometry" />
        </mxCell>
        <mxCell id="nc8W8f6lbi63a8oRN4Be-149" value="Comienza&lt;div&gt;Relleno de S&lt;/div&gt;" style="text;html=1;align=center;verticalAlign=middle;resizable=0;points=[];autosize=1;strokeColor=none;fillColor=none;" parent="1" vertex="1">
          <mxGeometry x="827" y="403.5" width="90" height="40" as="geometry" />
        </mxCell>
        <mxCell id="nc8W8f6lbi63a8oRN4Be-150" value="&lt;div&gt;Fin de&lt;/div&gt;&lt;div&gt;Relleno de S&lt;/div&gt;" style="text;html=1;align=center;verticalAlign=middle;resizable=0;points=[];autosize=1;strokeColor=none;fillColor=none;" parent="1" vertex="1">
          <mxGeometry x="920" y="403.5" width="90" height="40" as="geometry" />
        </mxCell>
        <mxCell id="nc8W8f6lbi63a8oRN4Be-151" value="Maquina de Relleno de S Libre" style="text;html=1;align=center;verticalAlign=middle;resizable=0;points=[];autosize=1;strokeColor=none;fillColor=none;" parent="1" vertex="1">
          <mxGeometry x="815" y="290" width="190" height="30" as="geometry" />
        </mxCell>
        <mxCell id="nc8W8f6lbi63a8oRN4Be-152" value="" style="ellipse;whiteSpace=wrap;html=1;aspect=fixed;" parent="1" vertex="1">
          <mxGeometry x="1060" y="464" width="40" height="40" as="geometry" />
        </mxCell>
        <mxCell id="nc8W8f6lbi63a8oRN4Be-153" value="" style="endArrow=none;html=1;rounded=0;" parent="1" edge="1">
          <mxGeometry width="50" height="50" relative="1" as="geometry">
            <mxPoint x="1160" y="524" as="sourcePoint" />
            <mxPoint x="1160" y="444" as="targetPoint" />
          </mxGeometry>
        </mxCell>
        <mxCell id="nc8W8f6lbi63a8oRN4Be-154" value="" style="endArrow=classic;html=1;rounded=0;" parent="1" edge="1">
          <mxGeometry width="50" height="50" relative="1" as="geometry">
            <mxPoint x="1160" y="484" as="sourcePoint" />
            <mxPoint x="1220" y="484" as="targetPoint" />
          </mxGeometry>
        </mxCell>
        <mxCell id="nc8W8f6lbi63a8oRN4Be-156" value="&lt;div&gt;Sorrentinos&amp;nbsp;&lt;/div&gt;&lt;div&gt;Esperando a guardar&lt;/div&gt;" style="text;html=1;align=center;verticalAlign=middle;resizable=0;points=[];autosize=1;strokeColor=none;fillColor=none;" parent="1" vertex="1">
          <mxGeometry x="1010" y="504" width="140" height="40" as="geometry" />
        </mxCell>
        <mxCell id="nc8W8f6lbi63a8oRN4Be-161" value="Comienza&lt;div&gt;Armado de Caja S&lt;/div&gt;" style="text;html=1;align=center;verticalAlign=middle;resizable=0;points=[];autosize=1;strokeColor=none;fillColor=none;" parent="1" vertex="1">
          <mxGeometry x="1095" y="392" width="120" height="40" as="geometry" />
        </mxCell>
        <mxCell id="nc8W8f6lbi63a8oRN4Be-162" value="" style="ellipse;whiteSpace=wrap;html=1;aspect=fixed;" parent="1" vertex="1">
          <mxGeometry x="1220" y="464" width="40" height="40" as="geometry" />
        </mxCell>
        <mxCell id="nc8W8f6lbi63a8oRN4Be-163" value="" style="endArrow=none;html=1;rounded=0;" parent="1" edge="1">
          <mxGeometry width="50" height="50" relative="1" as="geometry">
            <mxPoint x="1320" y="524" as="sourcePoint" />
            <mxPoint x="1320" y="444" as="targetPoint" />
          </mxGeometry>
        </mxCell>
        <mxCell id="nc8W8f6lbi63a8oRN4Be-165" value="Armando&lt;div&gt;Caja de S&lt;/div&gt;" style="text;html=1;align=center;verticalAlign=middle;resizable=0;points=[];autosize=1;strokeColor=none;fillColor=none;" parent="1" vertex="1">
          <mxGeometry x="1200" y="504" width="80" height="40" as="geometry" />
        </mxCell>
        <mxCell id="nc8W8f6lbi63a8oRN4Be-166" value="Fin de&lt;div&gt;Armado de Caja S&lt;/div&gt;" style="text;html=1;align=center;verticalAlign=middle;resizable=0;points=[];autosize=1;strokeColor=none;fillColor=none;" parent="1" vertex="1">
          <mxGeometry x="1260" y="395" width="120" height="40" as="geometry" />
        </mxCell>
        <mxCell id="nc8W8f6lbi63a8oRN4Be-168" value="Esperando Corte&amp;nbsp;&lt;div&gt;de masa en L2&lt;/div&gt;" style="text;html=1;align=center;verticalAlign=middle;resizable=0;points=[];autosize=1;strokeColor=none;fillColor=none;" parent="1" vertex="1">
          <mxGeometry x="380" y="500" width="120" height="40" as="geometry" />
        </mxCell>
        <mxCell id="nc8W8f6lbi63a8oRN4Be-219" value="" style="endArrow=classic;html=1;rounded=0;" parent="1" edge="1">
          <mxGeometry width="50" height="50" relative="1" as="geometry">
            <mxPoint x="680.0000000000001" y="491.41" as="sourcePoint" />
            <mxPoint x="740.0000000000001" y="491.41" as="targetPoint" />
          </mxGeometry>
        </mxCell>
        <mxCell id="nc8W8f6lbi63a8oRN4Be-220" value="" style="endArrow=classic;html=1;rounded=0;" parent="1" edge="1">
          <mxGeometry width="50" height="50" relative="1" as="geometry">
            <mxPoint x="680.0000000000001" y="499.62000000000006" as="sourcePoint" />
            <mxPoint x="740.0000000000001" y="499.62000000000006" as="targetPoint" />
          </mxGeometry>
        </mxCell>
        <mxCell id="nc8W8f6lbi63a8oRN4Be-221" value="" style="endArrow=classic;html=1;rounded=0;" parent="1" edge="1">
          <mxGeometry width="50" height="50" relative="1" as="geometry">
            <mxPoint x="680.0000000000001" y="479.91" as="sourcePoint" />
            <mxPoint x="740.0000000000001" y="479.91" as="targetPoint" />
          </mxGeometry>
        </mxCell>
        <mxCell id="nc8W8f6lbi63a8oRN4Be-234" value="" style="endArrow=classic;html=1;rounded=0;" parent="1" edge="1">
          <mxGeometry width="50" height="50" relative="1" as="geometry">
            <mxPoint x="1100" y="463.21" as="sourcePoint" />
            <mxPoint x="1160" y="463.21" as="targetPoint" />
          </mxGeometry>
        </mxCell>
        <mxCell id="nc8W8f6lbi63a8oRN4Be-235" value="" style="endArrow=classic;html=1;rounded=0;" parent="1" edge="1">
          <mxGeometry width="50" height="50" relative="1" as="geometry">
            <mxPoint x="1100" y="471.42" as="sourcePoint" />
            <mxPoint x="1160" y="471.42" as="targetPoint" />
          </mxGeometry>
        </mxCell>
        <mxCell id="nc8W8f6lbi63a8oRN4Be-236" value="" style="endArrow=classic;html=1;rounded=0;" parent="1" edge="1">
          <mxGeometry width="50" height="50" relative="1" as="geometry">
            <mxPoint x="1100" y="451.71" as="sourcePoint" />
            <mxPoint x="1160" y="451.71" as="targetPoint" />
          </mxGeometry>
        </mxCell>
        <mxCell id="nc8W8f6lbi63a8oRN4Be-237" value="" style="endArrow=classic;html=1;rounded=0;" parent="1" edge="1">
          <mxGeometry width="50" height="50" relative="1" as="geometry">
            <mxPoint x="1100" y="493.12000000000006" as="sourcePoint" />
            <mxPoint x="1160" y="493.12000000000006" as="targetPoint" />
          </mxGeometry>
        </mxCell>
        <mxCell id="nc8W8f6lbi63a8oRN4Be-238" value="" style="endArrow=classic;html=1;rounded=0;" parent="1" edge="1">
          <mxGeometry width="50" height="50" relative="1" as="geometry">
            <mxPoint x="1100" y="501.3300000000001" as="sourcePoint" />
            <mxPoint x="1160" y="501.3300000000001" as="targetPoint" />
          </mxGeometry>
        </mxCell>
        <mxCell id="nc8W8f6lbi63a8oRN4Be-239" value="" style="endArrow=classic;html=1;rounded=0;" parent="1" edge="1">
          <mxGeometry width="50" height="50" relative="1" as="geometry">
            <mxPoint x="1100" y="481.62" as="sourcePoint" />
            <mxPoint x="1160" y="481.62" as="targetPoint" />
          </mxGeometry>
        </mxCell>
        <mxCell id="nc8W8f6lbi63a8oRN4Be-252" value="" style="endArrow=classic;html=1;rounded=0;" parent="1" edge="1">
          <mxGeometry width="50" height="50" relative="1" as="geometry">
            <mxPoint x="842.0000000000001" y="492" as="sourcePoint" />
            <mxPoint x="902.0000000000001" y="492" as="targetPoint" />
          </mxGeometry>
        </mxCell>
        <mxCell id="nc8W8f6lbi63a8oRN4Be-253" value="" style="endArrow=classic;html=1;rounded=0;" parent="1" edge="1">
          <mxGeometry width="50" height="50" relative="1" as="geometry">
            <mxPoint x="842.0000000000001" y="470" as="sourcePoint" />
            <mxPoint x="902.0000000000001" y="470" as="targetPoint" />
          </mxGeometry>
        </mxCell>
        <mxCell id="nc8W8f6lbi63a8oRN4Be-254" value="" style="endArrow=classic;html=1;rounded=0;" parent="1" edge="1">
          <mxGeometry width="50" height="50" relative="1" as="geometry">
            <mxPoint x="940.0000000000001" y="491.58" as="sourcePoint" />
            <mxPoint x="1000.0000000000001" y="492" as="targetPoint" />
          </mxGeometry>
        </mxCell>
        <mxCell id="nc8W8f6lbi63a8oRN4Be-255" value="" style="endArrow=classic;html=1;rounded=0;" parent="1" edge="1">
          <mxGeometry width="50" height="50" relative="1" as="geometry">
            <mxPoint x="940.0000000000001" y="470" as="sourcePoint" />
            <mxPoint x="1000.0000000000001" y="470.42" as="targetPoint" />
          </mxGeometry>
        </mxCell>
        <mxCell id="nc8W8f6lbi63a8oRN4Be-257" style="edgeStyle=orthogonalEdgeStyle;rounded=0;orthogonalLoop=1;jettySize=auto;html=1;" parent="1" edge="1">
          <mxGeometry relative="1" as="geometry">
            <mxPoint x="840" y="492" as="targetPoint" />
            <mxPoint x="780" y="492" as="sourcePoint" />
          </mxGeometry>
        </mxCell>
        <mxCell id="nc8W8f6lbi63a8oRN4Be-258" style="edgeStyle=orthogonalEdgeStyle;rounded=0;orthogonalLoop=1;jettySize=auto;html=1;" parent="1" edge="1">
          <mxGeometry relative="1" as="geometry">
            <mxPoint x="840" y="470" as="targetPoint" />
            <mxPoint x="780" y="470" as="sourcePoint" />
          </mxGeometry>
        </mxCell>
        <mxCell id="nc8W8f6lbi63a8oRN4Be-259" value="" style="endArrow=classic;html=1;rounded=0;" parent="1" edge="1">
          <mxGeometry width="50" height="50" relative="1" as="geometry">
            <mxPoint x="1000.0000000000001" y="483.66" as="sourcePoint" />
            <mxPoint x="1060" y="484.08000000000004" as="targetPoint" />
          </mxGeometry>
        </mxCell>
        <mxCell id="nc8W8f6lbi63a8oRN4Be-260" value="" style="endArrow=classic;html=1;rounded=0;" parent="1" edge="1">
          <mxGeometry width="50" height="50" relative="1" as="geometry">
            <mxPoint x="1160" y="493" as="sourcePoint" />
            <mxPoint x="1220" y="493" as="targetPoint" />
          </mxGeometry>
        </mxCell>
        <mxCell id="nc8W8f6lbi63a8oRN4Be-261" value="" style="endArrow=classic;html=1;rounded=0;" parent="1" edge="1">
          <mxGeometry width="50" height="50" relative="1" as="geometry">
            <mxPoint x="1160" y="502" as="sourcePoint" />
            <mxPoint x="1220" y="502" as="targetPoint" />
          </mxGeometry>
        </mxCell>
        <mxCell id="nc8W8f6lbi63a8oRN4Be-262" value="" style="endArrow=classic;html=1;rounded=0;" parent="1" edge="1">
          <mxGeometry width="50" height="50" relative="1" as="geometry">
            <mxPoint x="1160" y="458" as="sourcePoint" />
            <mxPoint x="1220" y="458" as="targetPoint" />
          </mxGeometry>
        </mxCell>
        <mxCell id="nc8W8f6lbi63a8oRN4Be-264" value="" style="endArrow=classic;html=1;rounded=0;" parent="1" edge="1">
          <mxGeometry width="50" height="50" relative="1" as="geometry">
            <mxPoint x="1160" y="467" as="sourcePoint" />
            <mxPoint x="1220" y="467" as="targetPoint" />
          </mxGeometry>
        </mxCell>
        <mxCell id="nc8W8f6lbi63a8oRN4Be-265" value="" style="endArrow=classic;html=1;rounded=0;" parent="1" edge="1">
          <mxGeometry width="50" height="50" relative="1" as="geometry">
            <mxPoint x="1161" y="474.99999999999994" as="sourcePoint" />
            <mxPoint x="1221" y="474.99999999999994" as="targetPoint" />
          </mxGeometry>
        </mxCell>
        <mxCell id="nc8W8f6lbi63a8oRN4Be-270" value="" style="endArrow=none;html=1;rounded=0;" parent="1" edge="1">
          <mxGeometry width="50" height="50" relative="1" as="geometry">
            <mxPoint x="1320" y="524" as="sourcePoint" />
            <mxPoint x="1320" y="444" as="targetPoint" />
          </mxGeometry>
        </mxCell>
        <mxCell id="nc8W8f6lbi63a8oRN4Be-271" value="" style="endArrow=classic;html=1;rounded=0;" parent="1" edge="1">
          <mxGeometry width="50" height="50" relative="1" as="geometry">
            <mxPoint x="1320" y="484" as="sourcePoint" />
            <mxPoint x="1380" y="484" as="targetPoint" />
          </mxGeometry>
        </mxCell>
        <mxCell id="nc8W8f6lbi63a8oRN4Be-272" value="" style="ellipse;whiteSpace=wrap;html=1;aspect=fixed;" parent="1" vertex="1">
          <mxGeometry x="1380" y="464" width="40" height="40" as="geometry" />
        </mxCell>
        <mxCell id="nc8W8f6lbi63a8oRN4Be-273" value="" style="endArrow=none;html=1;rounded=0;" parent="1" edge="1">
          <mxGeometry width="50" height="50" relative="1" as="geometry">
            <mxPoint x="1480" y="524" as="sourcePoint" />
            <mxPoint x="1480" y="444" as="targetPoint" />
          </mxGeometry>
        </mxCell>
        <mxCell id="nc8W8f6lbi63a8oRN4Be-275" value="" style="endArrow=classic;html=1;rounded=0;" parent="1" edge="1">
          <mxGeometry width="50" height="50" relative="1" as="geometry">
            <mxPoint x="1420" y="483.58" as="sourcePoint" />
            <mxPoint x="1480" y="484" as="targetPoint" />
          </mxGeometry>
        </mxCell>
        <mxCell id="nc8W8f6lbi63a8oRN4Be-276" value="Caja S Esperando&lt;div&gt;Despache&lt;/div&gt;" style="text;html=1;align=center;verticalAlign=middle;resizable=0;points=[];autosize=1;strokeColor=none;fillColor=none;" parent="1" vertex="1">
          <mxGeometry x="1330" y="510" width="120" height="40" as="geometry" />
        </mxCell>
        <mxCell id="nc8W8f6lbi63a8oRN4Be-277" value="Se despacha&lt;div&gt;Caja S&lt;/div&gt;" style="text;html=1;align=center;verticalAlign=middle;resizable=0;points=[];autosize=1;strokeColor=none;fillColor=none;" parent="1" vertex="1">
          <mxGeometry x="1435" y="403" width="90" height="40" as="geometry" />
        </mxCell>
        <mxCell id="nc8W8f6lbi63a8oRN4Be-278" value="" style="endArrow=classic;html=1;rounded=0;" parent="1" edge="1">
          <mxGeometry width="50" height="50" relative="1" as="geometry">
            <mxPoint x="1160" y="212" as="sourcePoint" />
            <mxPoint x="1220" y="212" as="targetPoint" />
          </mxGeometry>
        </mxCell>
        <mxCell id="nc8W8f6lbi63a8oRN4Be-279" value="" style="endArrow=classic;html=1;rounded=0;" parent="1" edge="1">
          <mxGeometry width="50" height="50" relative="1" as="geometry">
            <mxPoint x="1160" y="190" as="sourcePoint" />
            <mxPoint x="1220" y="190" as="targetPoint" />
          </mxGeometry>
        </mxCell>
        <mxCell id="nc8W8f6lbi63a8oRN4Be-280" value="" style="endArrow=classic;html=1;rounded=0;" parent="1" edge="1">
          <mxGeometry width="50" height="50" relative="1" as="geometry">
            <mxPoint x="1320" y="201.66" as="sourcePoint" />
            <mxPoint x="1380" y="202.08" as="targetPoint" />
          </mxGeometry>
        </mxCell>
        <mxCell id="nc8W8f6lbi63a8oRN4Be-281" value="" style="ellipse;whiteSpace=wrap;html=1;aspect=fixed;" parent="1" vertex="1">
          <mxGeometry x="1380" y="182" width="40" height="40" as="geometry" />
        </mxCell>
        <mxCell id="nc8W8f6lbi63a8oRN4Be-282" value="" style="endArrow=none;html=1;rounded=0;" parent="1" edge="1">
          <mxGeometry width="50" height="50" relative="1" as="geometry">
            <mxPoint x="1480" y="242" as="sourcePoint" />
            <mxPoint x="1480" y="162" as="targetPoint" />
          </mxGeometry>
        </mxCell>
        <mxCell id="nc8W8f6lbi63a8oRN4Be-284" value="" style="endArrow=classic;html=1;rounded=0;" parent="1" edge="1">
          <mxGeometry width="50" height="50" relative="1" as="geometry">
            <mxPoint x="1420" y="201.57999999999998" as="sourcePoint" />
            <mxPoint x="1480" y="202" as="targetPoint" />
          </mxGeometry>
        </mxCell>
        <mxCell id="nc8W8f6lbi63a8oRN4Be-285" value="Caja C Esperando&lt;div&gt;Despache&lt;/div&gt;" style="text;html=1;align=center;verticalAlign=middle;resizable=0;points=[];autosize=1;strokeColor=none;fillColor=none;" parent="1" vertex="1">
          <mxGeometry x="1330" y="233" width="120" height="40" as="geometry" />
        </mxCell>
        <mxCell id="nc8W8f6lbi63a8oRN4Be-286" value="Se despacha&lt;div&gt;Caja C&lt;/div&gt;" style="text;html=1;align=center;verticalAlign=middle;resizable=0;points=[];autosize=1;strokeColor=none;fillColor=none;" parent="1" vertex="1">
          <mxGeometry x="1445" y="113" width="90" height="40" as="geometry" />
        </mxCell>
        <mxCell id="Q6FPG6MltvTUPaMM2-Do-1" value="" style="endArrow=classic;html=1;rounded=0;" edge="1" parent="1">
          <mxGeometry width="50" height="50" relative="1" as="geometry">
            <mxPoint x="1260" y="202" as="sourcePoint" />
            <mxPoint x="1320" y="202" as="targetPoint" />
          </mxGeometry>
        </mxCell>
        <mxCell id="Q6FPG6MltvTUPaMM2-Do-2" value="" style="endArrow=classic;html=1;rounded=0;" edge="1" parent="1">
          <mxGeometry width="50" height="50" relative="1" as="geometry">
            <mxPoint x="1260" y="212" as="sourcePoint" />
            <mxPoint x="1320" y="212" as="targetPoint" />
          </mxGeometry>
        </mxCell>
        <mxCell id="Q6FPG6MltvTUPaMM2-Do-3" value="" style="endArrow=classic;html=1;rounded=0;" edge="1" parent="1">
          <mxGeometry width="50" height="50" relative="1" as="geometry">
            <mxPoint x="1260" y="190" as="sourcePoint" />
            <mxPoint x="1320" y="190" as="targetPoint" />
          </mxGeometry>
        </mxCell>
        <mxCell id="Q6FPG6MltvTUPaMM2-Do-7" value="" style="endArrow=classic;html=1;rounded=0;" edge="1" parent="1">
          <mxGeometry width="50" height="50" relative="1" as="geometry">
            <mxPoint x="1260" y="483.67" as="sourcePoint" />
            <mxPoint x="1320" y="483.67" as="targetPoint" />
          </mxGeometry>
        </mxCell>
        <mxCell id="Q6FPG6MltvTUPaMM2-Do-8" value="" style="endArrow=classic;html=1;rounded=0;" edge="1" parent="1">
          <mxGeometry width="50" height="50" relative="1" as="geometry">
            <mxPoint x="1260" y="492.67" as="sourcePoint" />
            <mxPoint x="1320" y="492.67" as="targetPoint" />
          </mxGeometry>
        </mxCell>
        <mxCell id="Q6FPG6MltvTUPaMM2-Do-9" value="" style="endArrow=classic;html=1;rounded=0;" edge="1" parent="1">
          <mxGeometry width="50" height="50" relative="1" as="geometry">
            <mxPoint x="1260" y="501.67" as="sourcePoint" />
            <mxPoint x="1320" y="501.67" as="targetPoint" />
          </mxGeometry>
        </mxCell>
        <mxCell id="Q6FPG6MltvTUPaMM2-Do-10" value="" style="endArrow=classic;html=1;rounded=0;" edge="1" parent="1">
          <mxGeometry width="50" height="50" relative="1" as="geometry">
            <mxPoint x="1260" y="457.67" as="sourcePoint" />
            <mxPoint x="1320" y="457.67" as="targetPoint" />
          </mxGeometry>
        </mxCell>
        <mxCell id="Q6FPG6MltvTUPaMM2-Do-11" value="" style="endArrow=classic;html=1;rounded=0;" edge="1" parent="1">
          <mxGeometry width="50" height="50" relative="1" as="geometry">
            <mxPoint x="1260" y="466.67" as="sourcePoint" />
            <mxPoint x="1320" y="466.67" as="targetPoint" />
          </mxGeometry>
        </mxCell>
        <mxCell id="Q6FPG6MltvTUPaMM2-Do-12" value="" style="endArrow=classic;html=1;rounded=0;" edge="1" parent="1">
          <mxGeometry width="50" height="50" relative="1" as="geometry">
            <mxPoint x="1261" y="474.66999999999996" as="sourcePoint" />
            <mxPoint x="1321" y="474.66999999999996" as="targetPoint" />
          </mxGeometry>
        </mxCell>
      </root>
    </mxGraphModel>
  </diagram>
</mxfile>
